# xmcd
#
# Track frame offsets: 
#        150
#        20712
#        37539
#        54935
#        69276
#        85244
#        104307
#        129155
#        164092
#        188203
#        206083
#        231487
#        250411
#        273847
#
# Disc length: 4033 seconds
#
# Revision: 0
# Processed by: cddbd v1.5.2PL0 Copyright (c) Steve Scherf et al.
# Submitted via: ExactAudioCopy v1.3
#
DISCID=bb0fbf0e
DTITLE=Various Artist - Soul Bag Sampler, Jun 2012
DYEAR=2012
DGENRE=Blues
TTITLE0=Otis Taylor - Banjo boogie blues
TTITLE1=Anthony Hamilton - Mad
TTITLE2=Janiva Magness - I won't cry
TTITLE3=Ruthie Foster With The Blind Boys Of Alabama - Lord remember m
TTITLE3=e
TTITLE4=Lurrie Bell - The devil ain't got no music
TTITLE5=Heritage Blues Orchestra - Clarkdale moan
TTITLE6=Larry Garner - A whole lotta nothin'
TTITLE7=Mud Morganfield - Midnight lover
TTITLE8=Robin McKelle and The Flytones - So it goes
TTITLE9=Malted Milk - Hope she believes in me
TTITLE10=Betty Wright And The Roots - Old songs
TTITLE11=Eric Bibb - Bayou belle
TTITLE12=James Armstrong - Blues at the border
TTITLE13=Etta James - Cigarettes and coffee
EXTD=
EXTT0=
EXTT1=
EXTT2=
EXTT3=
EXTT4=
EXTT5=
EXTT6=
EXTT7=
EXTT8=
EXTT9=
EXTT10=
EXTT11=
EXTT12=
EXTT13=
PLAYORDER=
